<svg
   version="1.1"
   id="svg1"
   width="1117.5155"
   height="703.99799"
   viewBox="0 0 1117.5155 703.99799"
   sodipodi:docname="103c.svg"
   inkscape:version="1.3.2 (091e20ef0f, 2023-11-25)"
   xmlns:inkscape="http://www.inkscape.org/namespaces/inkscape"
   xmlns:sodipodi="http://sodipodi.sourceforge.net/DTD/sodipodi-0.dtd"
   xmlns="http://www.w3.org/2000/svg"
   xmlns:svg="http://www.w3.org/2000/svg">
  <defs
     id="defs1" />
  <sodipodi:namedview
     id="namedview1"
     pagecolor="#ffffff"
     bordercolor="#000000"
     borderopacity="0.25"
     inkscape:showpageshadow="2"
     inkscape:pageopacity="0.0"
     inkscape:pagecheckerboard="0"
     inkscape:deskcolor="#d1d1d1"
     showgrid="false"
     inkscape:zoom="0.8612398"
     inkscape:cx="548.62769"
     inkscape:cy="252.5429"
     inkscape:window-width="1920"
     inkscape:window-height="1011"
     inkscape:window-x="0"
     inkscape:window-y="0"
     inkscape:window-maximized="1"
     inkscape:current-layer="layer1" />
  <g
     inkscape:groupmode="layer"
     id="layer1"
     inkscape:label="Layer 1"
     transform="translate(-26.463327,-20.002072)"
     style="fill:#ffcc00">
    <path
       id="path1"
       style="fill:#000000"
       d="M 103.25044 20.002072 C 96.149911 19.999892 80.278564 23.696234 69.918405 27.765744 L 63.77778 30.177853 L 71.068796 35.681759 C 78.881317 41.580271 84.000436 49.934996 84.000436 56.785275 C 84.000436 58.954378 80.723609 67.552216 76.719186 75.890744 C 67.262976 95.581687 65.545802 102.99159 68.269968 112.34778 C 69.38863 116.18984 70.750426 120.38281 71.295358 121.66613 C 72.142229 123.66054 71.524876 124.00012 67.047311 124.00012 C 59.812786 124.00012 50.775691 127.31077 44.984811 132.0841 C 36.300016 139.24285 30.132074 155.68937 27.373483 179.04504 L 26.463327 186.75793 L 37.564889 175.56653 C 46.23082 166.82971 50.276059 163.7789 56.000436 161.66418 C 62.56708 159.23829 84.000436 156.13296 84.000436 157.60754 C 84.000436 157.93093 79.816814 161.05521 74.703561 164.54895 C 69.590309 168.04267 64.190302 172.86796 62.703561 175.27356 C 55.577672 186.80348 62.760351 198.56563 84.275827 210.59973 L 91.883249 214.85559 L 91.135202 203.76184 C 90.450856 193.62673 90.658586 192.26326 93.537546 188.00012 C 96.872965 183.06103 106.54762 177.3341 111.55512 177.3341 L 114.54341 177.3341 L 111.28559 184.3341 C 105.19087 197.42507 108.08023 211.72346 118.43794 219.72278 C 124.41819 224.34135 133.48017 229.6317 134.19184 228.92004 C 134.47893 228.63295 133.7738 224.73064 132.62544 220.24817 C 131.03108 214.02476 130.86149 210.89539 131.90669 207.01379 C 133.40459 201.451 140.73144 193.60312 147.70551 190.09192 L 152.07856 187.89074 L 151.18403 191.61145 C 150.69272 193.65805 150.12398 195.53375 149.92036 195.77942 C 149.71673 196.0251 150.14072 197.92 150.86176 199.9884 C 152.97209 206.0421 157.79581 207.18782 177.09419 206.22278 C 189.84177 205.58531 195.78921 205.85222 201.27192 207.30676 C 205.27116 208.36773 208.77558 209.00232 209.06098 208.71692 C 209.34638 208.43152 205.5571 203.50332 200.63911 197.76574 C 195.72111 192.02816 190.76048 185.3967 189.61567 183.02942 C 187.6999 179.0679 187.71797 178.52123 189.84223 176.17395 C 191.11163 174.77128 194.73476 172.25279 197.89497 170.57629 C 202.8576 167.94362 204.16649 167.74658 207.49458 169.12512 C 211.07416 170.60784 211.31403 171.15545 210.86176 176.84192 C 210.26359 184.36304 212.45809 188.76764 217.71919 190.60168 C 222.32342 192.20672 230.56022 190.47971 235.98872 186.7716 C 241.63995 182.91135 282.5628 171.41702 303.20356 167.8927 C 314.75497 165.92035 336.00044 167.66653 336.00044 170.58801 C 336.00044 171.10702 332.37258 177.04012 327.93794 183.7716 C 308.93541 212.61612 291.34273 222.62256 274.73676 214.03528 L 270.852 212.02746 L 269.22505 219.29504 C 267.81701 225.58679 267.90904 227.37602 269.90473 232.60168 C 271.17276 235.92197 273.75292 239.85237 275.63911 241.33606 L 279.0688 244.03332 L 273.14887 251.65637 C 261.31027 266.90215 250.3845 270.76567 237.66645 264.20324 L 232.00044 261.27942 L 232.00044 268.69348 C 232.00044 277.42406 235.34603 284.91787 241.33833 289.60754 L 245.41841 292.8009 L 242.82856 298.73449 C 241.40375 301.9975 239.29297 310.66487 238.13911 317.99621 C 235.57336 334.29822 232.33602 339.48217 220.14301 346.81262 C 210.77795 352.4429 210.77166 352.43456 225.09028 354.71692 C 233.34411 356.03255 234.70285 356.60988 233.90278 358.46887 C 229.58148 368.50949 233.68883 375.94697 248.45942 384.82238 C 254.41844 388.40306 262.28542 394.20205 265.94184 397.70715 L 272.59028 404.0802 L 269.11176 406.37317 C 267.19874 407.63473 261.5156 411.86389 256.48286 415.7716 C 245.7523 424.10345 226.64858 433.81299 215.38716 436.65832 C 205.01799 439.27821 187.7061 439.22297 178.57466 436.53918 C 167.01222 433.14091 154.52154 425.90327 144.5688 416.83801 C 139.48931 412.21146 134.02215 407.73164 132.42036 406.88098 C 128.65856 404.88319 121.94951 404.90216 118.24653 406.92199 C 116.64133 407.79756 111.44325 408.37785 106.66645 408.21496 C 101.8998 408.0524 95.961292 408.52048 93.469186 409.25598 C 88.969999 410.58385 80.025699 415.99579 80.008249 417.40051 C 80.003238 417.80379 83.449789 418.85095 87.666452 419.72863 C 98.389453 421.96059 104.00044 425.62409 104.00044 430.3927 C 104.00044 437.04799 106.7423 439.11348 116.84419 440.06457 C 126.95552 441.01655 148.35981 449.01515 145.16059 450.6466 C 140.94642 452.79565 121.68918 454.73626 118.10395 453.37317 C 113.25939 451.53127 105.16003 451.70613 102.55122 453.7091 C 99.428722 456.10648 97.332468 460.64638 97.332468 465.01379 C 97.332468 467.4702 96.059007 470.0421 93.822702 472.10168 C 88.182748 477.29592 84.027065 487.56057 84.012155 496.3341 C 83.996549 505.52017 85.383695 505.9782 91.512155 498.81848 C 93.95117 495.96903 98.359084 492.445 101.30708 490.98645 C 106.6393 488.34822 106.69316 488.34768 111.95551 490.95129 C 119.06988 494.4712 124.75359 492.61107 131.30708 484.6134 C 136.33821 478.47357 142.01985 476.02632 155.74848 474.08801 C 162.43457 473.14402 162.68793 472.37045 151.51801 487.03723 C 147.21939 492.68157 141.67819 498.55005 139.20551 500.07824 C 130.06185 505.72934 126.65825 514.61863 131.29145 520.74426 C 132.48283 522.31941 133.27715 526.46536 133.32075 531.3341 C 133.36341 536.09472 134.37594 541.4924 135.8227 544.66613 C 138.39762 550.3147 144.84797 558.66613 146.6352 558.66613 C 147.22059 558.66613 147.94412 554.61613 148.24262 549.66613 C 148.95514 537.85036 151.33219 533.14636 157.33247 531.68371 C 164.22652 530.00321 168.00044 525.11653 168.00044 517.86731 C 168.00044 512.4931 168.86814 510.81451 176.51801 501.41613 L 185.03755 490.94934 L 185.77583 495.80871 C 186.18205 498.48085 186.93838 505.13317 187.45551 510.59192 C 188.53869 522.02542 191.25526 525.9061 199.22114 527.40051 C 205.60837 528.59876 207.06426 531.57127 207.9438 545.20324 L 208.66645 556.40637 L 213.06489 552.69543 C 219.39043 547.36048 224.00962 537.43219 224.62153 527.85754 C 224.90316 523.45076 225.834 519.00366 226.68794 517.97473 C 227.54187 516.94581 228.56193 513.70406 228.95551 510.76965 C 229.61506 505.85234 229.17461 504.88091 223.32661 498.38293 C 216.29898 490.57421 212.57829 483.8921 213.67231 481.04113 C 214.44087 479.03832 234.17995 472.72522 243.87934 471.38098 C 262.03144 468.86527 276.91842 479.23746 275.58247 493.46887 L 275.00434 499.63684 L 281.16841 497.65051 C 284.88103 496.45435 293.08228 495.60002 301.78559 495.50012 L 316.23676 495.3341 L 319.44966 499.3341 C 324.44735 505.55677 331.44942 519.73154 334.59809 530.00012 C 340.68115 549.83842 339.25051 569.54771 330.41645 587.57434 C 326.14497 596.29067 315.82913 607.8551 298.45161 623.40637 C 292.15771 629.03881 290.28495 633.71256 291.90278 639.76184 C 292.41578 641.68004 292.07584 645.32428 291.13911 647.94348 C 290.21013 650.54102 289.45728 655.66744 289.46528 659.3341 C 289.47939 666.05917 293.03547 677.70643 295.13325 677.8966 C 295.75679 677.95313 297.32905 675.20173 298.62739 671.78137 C 299.92574 668.36101 302.28477 663.7414 303.86958 661.51574 C 306.55367 657.74627 307.18344 657.52081 313.04341 658.21301 C 318.35036 658.83989 319.73953 658.50615 321.92817 656.0841 C 323.35511 654.505 324.64021 651.51712 324.78364 649.44543 C 325.2034 643.38235 326.57871 639.9622 333.13911 628.66613 L 339.33247 618.00012 L 339.71723 631.21301 C 340.00147 640.98842 339.56851 645.55071 338.05122 648.74817 C 336.92325 651.12517 336.00044 655.47549 336.00044 658.41613 C 336.00044 662.74963 336.77705 664.41721 340.102 667.21496 C 342.35827 669.11348 345.13341 670.66613 346.26801 670.66613 C 347.40263 670.66613 350.6634 673.31623 353.51411 676.55481 C 356.36483 679.79338 361.23969 683.65308 364.34809 685.13098 C 369.94289 687.79104 382.66645 690.37134 382.66645 688.84582 C 382.66645 688.41076 380.26914 684.89233 377.33833 681.02746 C 370.22527 671.64745 369.47354 667.20985 373.89301 660.69738 C 379.35222 652.65278 378.1136 644.78339 370.44184 638.7677 C 366.34613 635.5561 364.00044 626.88743 364.00044 614.96496 L 364.00044 607.3966 L 374.75434 618.03137 C 380.66954 623.88082 386.40225 630.76744 387.49262 633.3341 C 388.58299 635.90077 391.04173 639.63676 392.95747 641.63684 C 396.12331 644.94206 397.36164 645.28498 406.55317 645.3966 C 412.1152 645.46415 420.01739 645.59271 424.11176 645.68371 C 429.73117 645.80855 433.14687 645.0159 438.04731 642.44934 C 441.61786 640.5793 444.73402 638.46149 444.97309 637.74426 C 445.21217 637.02704 442.12805 635.70772 438.11958 634.81067 C 426.89712 632.29919 422.15299 628.49004 421.27192 621.28528 C 420.87161 618.01182 419.83477 614.04563 418.96723 612.47278 C 417.28678 609.42609 411.16945 606.74235 405.46723 606.54895 C 402.8636 606.46064 399.88674 603.93975 393.51606 596.43176 L 385.02973 586.43176 L 399.6352 587.24231 C 413.22855 587.99604 414.49415 587.85265 417.88716 585.18371 C 419.89225 583.6065 422.06109 580.92483 422.70747 579.22473 C 424.48472 574.55021 433.09757 572.60229 443.95942 574.41809 C 448.70327 575.21113 452.79685 575.64707 453.05708 575.38684 C 453.98989 574.45404 449.49919 567.26594 445.78559 563.74621 C 440.97279 559.18467 431.20267 554.73333 425.91645 554.69543 C 423.14801 554.67558 420.60313 553.38403 418.01606 550.68371 C 412.00871 544.41339 406.75145 544.14107 398.35591 549.66613 C 388.32254 556.26906 385.99683 557.3341 381.60395 557.3341 C 377.77794 557.3341 377.65334 557.11108 375.51411 546.3341 C 374.31318 540.28411 373.3319 532.89044 373.33247 529.90442 C 373.33352 524.39776 376.71848 512.53806 378.62544 511.35949 C 379.1987 511.00519 390.69171 513.65654 404.16645 517.25207 C 433.59666 525.10506 444.22897 527.31878 462.66645 529.43176 C 481.66955 531.60957 517.10238 530.26845 548.66645 526.17785 C 562.59977 524.37215 579.60759 522.47601 586.46137 521.96301 L 598.92231 521.02942 L 597.35786 523.95324 C 591.89062 534.16886 568.39572 554.66613 562.15278 554.66613 C 561.05582 554.66613 559.8291 555.1971 559.42817 555.84582 C 559.02724 556.49453 555.84239 557.49343 552.35005 558.06457 C 548.8577 558.63571 545.10044 559.33547 544.00044 559.62121 C 539.81441 560.70857 520.40931 560.17776 514.66645 558.81848 C 501.74629 555.76038 492.68684 558.57028 489.32856 566.67785 C 488.41998 568.87137 486.80682 570.66613 485.74458 570.66613 C 482.76805 570.66613 472.84695 577.96787 469.11176 582.90637 C 467.26992 585.34158 465.36827 589.35191 464.8852 591.81848 L 464.0063 596.30285 L 467.33637 594.12121 C 469.16802 592.92107 470.66645 592.27433 470.66645 592.68371 C 470.66645 593.09308 471.92328 592.75388 473.45942 591.93176 C 474.99557 591.10964 479.04557 590.1381 482.45942 589.7716 C 488.19428 589.15591 488.89879 589.4176 491.70747 593.21887 C 495.54594 598.41387 499.69239 598.53425 507.09223 593.66613 C 513.01914 589.76702 513.0127 589.7711 523.30512 587.93957 C 535.86412 585.7047 537.33247 585.51033 537.33247 586.08996 C 537.33247 586.75968 528.86764 594.96936 522.64497 600.3341 C 520.3058 602.35077 517.55432 604.07443 516.52973 604.16613 C 513.30167 604.45494 512.76507 604.66001 508.4477 607.24621 C 501.58039 611.35989 500.3477 616.956 504.52192 625.07043 C 505.75039 627.45849 506.06778 630.458 505.46723 634.00012 C 504.08343 642.16195 506.09263 651.53679 510.79536 658.86535 C 515.58418 666.32809 517.18522 665.97064 518.05317 657.24621 C 518.90033 648.73061 524.45883 638.05202 527.59614 638.91223 C 528.18542 639.0738 530.78899 638.78099 533.38325 638.26184 C 539.25136 637.08752 542.65512 631.81096 543.58247 622.45129 C 543.94818 618.7602 545.24226 614.4971 546.45747 612.97668 C 549.71269 608.90389 561.32463 597.3341 562.15669 597.3341 C 563.87283 597.3341 560.97707 625.15919 558.57856 631.71692 C 557.16035 635.59442 556.00044 640.45621 556.00044 642.5216 C 556.00044 646.55793 561.28051 653.3341 564.42622 653.3341 C 565.46379 653.3341 567.98555 655.88345 570.03169 659.00012 C 572.07783 662.11679 575.25947 666.08009 577.10005 667.80871 C 582.73501 673.1009 597.33247 678.27305 597.33247 674.97668 C 597.33247 674.41358 595.77254 671.6549 593.86372 668.84582 C 591.95491 666.03675 590.25003 663.04578 590.07661 662.20129 C 589.90318 661.35679 589.30413 658.44403 588.74458 655.72863 C 587.85203 651.39728 588.16723 650.3835 591.3227 647.4591 C 596.28431 642.86085 596.73762 636.37122 592.52778 630.1759 C 589.62314 625.90133 589.37507 624.5206 590.17426 617.03332 C 590.66542 612.43194 591.12666 606.41751 591.19966 603.66809 C 591.27267 600.91865 591.50332 598.66865 591.71137 598.66809 C 592.3748 598.66628 599.19349 606.15985 603.33247 611.43957 C 612.59442 623.25422 614.86364 624.31862 623.99653 621.13488 C 630.25376 618.9536 635.41038 622.12809 641.8852 632.1466 C 646.50986 639.30236 647.26775 639.94335 648.55122 637.77746 C 650.47378 634.53308 650.20902 615.00947 648.21528 613.01574 C 647.36353 612.16398 646.66645 610.5002 646.66645 609.31848 C 646.66645 608.13676 645.53345 605.95308 644.14887 604.46692 C 642.76431 602.98075 641.35991 599.41254 641.02778 596.53723 C 640.30089 590.24441 637.47073 585.3341 634.57075 585.3341 C 629.73878 585.3341 614.78662 579.63391 612.09028 576.76379 C 609.68568 574.20421 609.48541 573.3557 610.92622 571.83606 C 611.88342 570.82647 614.41445 567.59947 616.55122 564.66613 C 622.349 556.70698 635.73954 544.23285 639.07466 543.68371 C 640.68369 543.41877 644.70044 544.49954 648.00044 546.0841 C 651.30043 547.66866 657.13361 549.99065 660.96333 551.24426 C 665.98599 552.88836 669.08502 554.98794 672.08637 558.77746 C 678.42427 566.7797 687.39411 585.12269 688.98481 593.3341 C 691.87635 608.26062 690.03435 626.97019 684.59809 637.87121 C 683.53621 640.00054 682.66645 642.27798 682.66645 642.93176 C 682.66645 644.48984 670.53747 662.20593 665.95942 667.3341 C 660.06087 673.94146 658.40021 681.18561 661.46919 686.92004 C 662.2769 688.42926 663.04886 694.54556 663.18598 700.51379 C 663.41259 710.3773 663.83114 711.9418 667.78169 717.68371 C 670.17208 721.15805 672.69881 724.00012 673.39692 724.00012 C 674.09502 724.00012 674.69882 721.75012 674.73872 719.00012 C 674.7786 716.25012 675.84035 711.31546 677.09809 708.03332 C 679.21067 702.52042 679.83575 701.98745 685.28755 701.05676 C 693.64281 699.63041 695.3025 697.44698 695.50239 687.61926 C 695.65871 679.93393 702.15931 655.04962 703.62739 656.5177 C 705.68216 658.57245 709.22955 680.10879 708.51997 686.22278 C 707.10937 698.37697 711.6555 705.3341 721.0102 705.3341 C 722.74034 705.3341 726.37156 707.10666 729.07856 709.27356 C 736.16489 714.94601 742.63162 717.24873 751.18208 717.1466 C 758.93045 717.05405 762.03082 715.24351 758.15473 713.07434 C 753.68579 710.57338 745.41188 701.44519 744.5688 698.08606 C 744.06549 696.08072 744.37849 693.81786 745.31489 692.68957 C 746.20188 691.62081 747.01974 687.87821 747.1313 684.37317 C 747.36261 677.10617 744.6593 672.51994 738.26411 669.32629 C 736.06965 668.23041 732.98012 664.93345 731.39887 662.00012 C 728.57156 656.75524 724.75322 642.80202 725.84614 641.7091 C 727.04691 640.50834 748.96369 655.31855 754.00044 660.73449 C 762.37153 669.73579 764.91787 670.87328 771.33442 668.48254 C 774.26775 667.38961 779.55159 666.54759 783.07856 666.60949 C 790.82895 666.74552 800.31697 662.82696 806.33442 657.00403 C 808.71775 654.69774 810.66645 652.47255 810.66645 652.06067 C 810.66645 651.64879 807.09767 651.23038 802.73481 651.13098 C 791.86717 650.88325 785.00106 647.41302 783.84419 641.5802 C 783.36197 639.14896 781.55193 635.65147 779.82075 633.80871 C 777.06794 630.87853 775.7525 630.51391 769.33637 630.8966 C 764.1685 631.20484 761.3646 630.74295 759.852 629.3341 C 758.67099 628.2341 754.32164 624.95229 750.18598 622.04113 C 746.05033 619.12998 742.66645 616.35368 742.66645 615.87317 C 742.66645 614.80177 749.65614 613.3341 754.75434 613.3341 C 756.81939 613.3341 758.89596 612.70859 759.36762 611.94543 C 759.83928 611.18227 761.40334 610.93148 762.84419 611.38879 C 767.58597 612.89378 774.59867 606.88432 776.00044 600.1134 C 777.13455 594.63541 786.50979 590.70686 799.04731 590.4552 C 802.50517 590.3858 805.33442 589.91731 805.33442 589.41418 C 805.33442 588.17686 798.82197 582.1999 794.47114 579.44348 C 789.96739 576.59018 785.03284 575.55888 776.66645 575.72278 C 772.35562 575.80723 768.50058 574.97191 765.75825 573.35949 C 761.5867 570.90674 758.82202 570.21016 754.46333 570.51379 C 753.25109 570.59824 749.34978 573.71751 745.79536 577.44738 C 734.90674 588.87347 728.527 590.82517 725.46333 583.66613 C 724.44339 581.28281 722.48105 576.93701 721.102 574.00793 C 719.72296 571.07886 718.23119 566.41314 717.78755 563.63879 L 716.98091 558.59387 L 724.15669 558.80481 C 736.81128 559.17884 748.32123 557.22706 754.59223 553.64074 C 760.00421 550.54571 761.01548 550.38564 766.27778 551.79309 C 773.19398 553.64289 784.62359 553.80739 787.80708 552.10363 C 789.2822 551.31418 794.14129 551.58547 801.3852 552.86145 C 814.41711 555.15695 818.69582 554.73556 828.64692 550.17981 C 843.46979 543.39367 854.75833 544.34827 873.92426 554.00403 C 879.01554 556.569 884.41556 558.6573 885.92426 558.6466 C 889.87356 558.61866 898.57774 555.39108 907.94184 550.48254 C 914.52294 547.03282 918.07908 546.10529 926.60981 545.61145 C 936.12834 545.06043 937.75332 545.33929 943.40864 548.50012 C 950.25001 552.32383 955.31728 552.77617 967.05903 550.60559 C 973.94013 549.33355 974.95402 549.46484 978.52583 552.10559 L 982.4438 555.00207 L 998.22114 552.76574 C 1029.4561 548.33851 1052.8688 540.07191 1074.2153 525.92981 C 1114.1437 499.477 1133.8415 457.14443 1127.9965 410.34582 C 1125.6694 391.71419 1125.6603 387.04244 1127.9106 361.62121 C 1130.7867 329.12866 1127.5606 306.3512 1115.9575 277.22668 C 1108.7398 259.11003 1105.7019 247.54739 1103.8637 231.21106 C 1102.0244 214.86559 1103.7966 196.73102 1108.2465 186.38684 C 1114.8923 170.9382 1122.7794 176.45508 1131.4497 202.61731 L 1135.6625 215.3341 L 1137.9204 210.00012 C 1148.0619 186.03041 1145.2824 163.47824 1131.0004 153.85363 C 1116.7314 144.23763 1096.263 153.08134 1086.0239 173.28723 C 1079.171 186.81069 1076.9337 198.6016 1076.9047 221.3341 C 1076.8751 244.89667 1079.3997 262.65346 1084.6762 276.00012 C 1091.4372 293.10161 1093.5406 303.66602 1094.3032 324.3341 C 1094.7621 336.77346 1094.549 344.00012 1093.7231 344.00012 C 1093.0049 344.00012 1088.9636 342.81172 1084.7426 341.35949 C 1066.1672 334.9686 1039.7789 332.80577 1025.8012 336.52746 C 1009.9575 340.74601 997.42883 351.01447 990.9438 365.09973 C 985.92465 376.00111 985.22358 393.4347 989.26801 406.75012 C 999.89898 441.75027 1031.8507 458.47451 1065.9868 446.90442 C 1070.3799 445.4154 1074.184 444.40633 1074.4399 444.66223 C 1074.6958 444.91814 1072.5004 448.6698 1069.561 452.99817 C 1062.25 463.76409 1050.3867 474.28575 1040.0004 479.21692 C 1028.3896 484.72941 1013.864 485.37369 989.03755 481.47473 C 979.30069 479.94557 964.43376 477.72165 956.00044 476.53332 C 947.5671 475.34499 938.94628 473.4867 936.84419 472.40442 C 931.53167 469.66921 914.74576 468.56782 909.14692 470.58606 C 897.01693 474.95859 875.73983 474.59093 870.57856 469.92004 C 869.41179 468.86412 867.79919 468.00012 866.99653 468.00012 C 866.19388 468.00012 863.68667 466.44287 861.42426 464.53918 C 856.91002 460.7407 858.04137 460.76021 832.00044 464.0177 C 822.11302 465.25449 813.91654 465.23679 794.64692 463.93762 C 771.46971 462.375 769.67808 462.42324 765.31489 464.7091 C 761.65041 466.62891 756.63451 467.27039 741.60005 467.74231 C 723.68548 468.30465 722.35628 468.17251 719.58442 465.56848 C 715.95246 462.15643 706.37042 457.85805 699.6313 456.61731 C 693.21824 455.43661 691.52163 452.33017 692.68208 443.8927 L 693.58051 437.34973 L 687.12348 438.12121 C 683.57199 438.54548 679.8037 439.16755 678.74848 439.50207 C 677.69326 439.8366 672.5926 437.97229 667.4145 435.35949 C 661.57186 432.4114 654.96509 430.23993 650.00044 429.63684 L 642.00044 428.66418 L 641.60005 420.21496 C 641.27726 413.39638 640.81785 411.9116 639.22309 412.52356 C 632.74139 415.01082 619.72747 417.64658 614.00044 417.63098 C 605.47403 417.60768 578.62646 408.99492 573.61762 404.6759 C 572.17373 403.43085 577.42773 396.6336 581.89301 393.97082 L 587.29341 390.75012 L 588.87934 378.12903 C 591.1571 359.99216 597.55101 347.08079 607.15473 341.22473 C 620.1601 333.29445 630.38233 343.88256 632.73091 367.71692 L 633.66645 377.21692 L 638.53364 374.73449 C 646.39737 370.72271 655.50054 359.99809 657.89887 351.92199 C 660.51471 343.11347 660.51604 340.89204 657.91255 332.12512 C 656.3882 326.99207 653.89618 323.10478 648.66059 317.69934 L 641.49262 310.29895 L 649.74653 300.82824 C 664.48842 283.91112 672.77752 276.00012 675.7602 276.00012 C 681.1293 276.00012 685.3253 288.09462 688.48091 312.66613 L 690.1938 326.00012 L 694.61176 317.3341 C 697.04243 312.56745 701.3932 305.1851 704.27973 300.92981 C 711.56153 290.19504 713.33247 285.33427 713.33247 276.09192 C 713.33247 266.63744 710.3262 258.28557 702.41059 245.75207 L 696.78559 236.84582 L 703.22114 224.75598 C 712.72547 206.90005 722.92489 192.03675 730.60005 184.85754 C 736.24882 179.57378 738.12075 178.57265 741.6977 178.91809 C 745.34507 179.27033 746.47954 180.30154 749.15278 185.69153 C 750.88719 189.18856 753.34488 198.18857 754.61372 205.69153 L 756.92036 219.3341 L 764.25239 211.91028 C 775.51757 200.50368 778.88881 186.28756 773.84223 171.47668 C 771.48173 164.54897 760.90447 152.16989 752.17622 146.12121 L 746.88325 142.45324 L 749.27778 135.49621 C 756.65994 114.03956 770.35198 97.334103 780.55512 97.334103 C 786.58933 97.334103 795.98823 107.84003 800.70161 119.85363 C 802.77637 125.14184 804.90193 129.73394 805.42426 130.05676 C 807.1617 131.13056 812.2871 106.85034 812.39887 97.017697 C 812.6667 73.45751 802.18059 62.666134 779.01606 62.666134 C 750.80507 62.666134 719.99719 73.878851 648.35981 110.21887 C 626.19048 121.46486 607.55943 130.66613 606.95942 130.66613 C 603.9405 130.66613 598.71118 107.5883 598.68598 94.154416 C 598.65958 80.076769 600.71109 73.96369 607.97505 66.466916 C 615.06582 59.148882 620.88616 57.185666 635.48481 57.185666 C 646.88221 57.185666 646.86129 57.235347 640.37934 45.136838 C 628.66763 23.276988 611.00744 17.26582 590.54536 28.171994 C 581.20041 33.1528 572.63855 41.192198 556.00044 60.607541 C 491.6197 135.73469 468.69771 174.43285 463.16841 217.3341 C 458.3948 254.37198 455.4196 263.56264 442.80903 280.22082 C 427.07827 301.00067 392.74022 333.3341 386.40278 333.3341 C 382.458 333.3341 379.49698 329.97766 377.97505 323.78332 C 377.17755 320.53744 378.22548 319.33814 390.21723 309.78332 C 402.68555 299.84879 403.13516 299.31761 399.33247 298.99621 C 397.13247 298.81028 392.1174 298.30798 388.18598 297.88098 L 381.03755 297.10363 L 381.58637 288.88488 C 382.433 276.22851 384.4999 273.19432 393.67817 271.12317 C 397.90115 270.17021 403.14282 268.46534 405.32661 267.33606 C 410.14363 264.84508 418.66645 257.51404 418.66645 255.86145 C 418.66645 255.20409 414.16645 254.66613 408.66645 254.66613 C 401.33363 254.66613 398.66645 254.203 398.66645 252.92785 C 398.66645 250.8797 404.98997 240.60866 411.7563 231.66613 C 415.79504 226.32846 417.24838 225.3341 421.0063 225.3341 C 427.35067 225.3341 432.36269 222.32549 438.18598 215.0216 C 440.97227 211.5269 445.57589 206.07096 448.4145 202.89856 C 451.25311 199.72615 453.31295 196.86928 452.99262 196.54895 C 452.6723 196.22863 448.36979 197.02379 443.43208 198.31653 C 434.66384 200.61211 434.41091 200.60604 432.56098 198.07824 C 430.10647 194.72433 430.15395 187.54274 432.68794 179.00988 C 434.41728 173.18653 435.29055 172.07586 438.72114 171.32238 C 440.92683 170.83793 444.57211 168.8919 446.8227 166.99817 C 451.23772 163.28317 457.95368 153.51002 456.85005 152.40637 C 456.47841 152.03473 452.98433 151.34109 449.08637 150.86535 L 442.00044 150.00012 L 441.20942 136.00012 C 440.5906 125.04769 440.80826 121.76788 442.20942 120.93371 C 447.57887 117.73708 449.48965 104.95177 446.21919 94.1134 L 444.64497 88.89465 L 441.00825 94.390744 C 438.24637 98.564228 436.03514 100.24579 431.82661 101.37903 C 425.47328 103.0898 424.07367 102.01122 423.99067 95.334103 C 423.86582 85.285515 416.03696 75.683435 403.1313 69.750119 C 396.31166 66.614829 396.26824 66.554487 396.96137 61.386838 C 397.71535 55.765505 394.03509 46.254776 389.52583 42.173947 C 387.26084 40.124164 386.60274 40.509142 378.4477 48.664181 C 373.67944 53.432444 368.85931 57.334103 367.73676 57.334103 C 366.32739 57.334103 365.43965 55.469755 364.86958 51.310666 C 363.75628 43.188268 360.7341 37.742629 355.602 34.6134 C 350.31327 31.388677 348.00366 31.304017 347.98676 34.334103 C 347.97192 36.993023 342.45588 48.787859 339.52778 52.421994 C 338.28772 53.961053 333.47595 55.674183 326.32856 57.121213 C 315.44464 59.32472 314.8917 59.314997 309.20747 56.822384 C 301.23079 53.324505 290.25547 53.429859 283.15083 57.072384 C 280.11737 58.627627 274.56895 63.33966 270.82075 67.545041 C 264.40239 74.746279 263.5598 75.246612 256.33637 76.117306 C 252.11804 76.625774 239.94241 76.718334 229.27973 76.324338 C 207.60261 75.523347 201.8051 76.628025 197.22309 82.429806 C 194.59216 85.761116 194.46338 86.992122 195.32075 100.81848 C 196.16203 114.38514 195.9991 116.10927 193.37544 121.25207 C 189.41545 129.01427 190.14897 133.61734 195.62934 135.38879 L 199.92426 136.77746 L 195.71528 138.36731 C 192.17773 139.70259 190.87226 139.58642 187.55708 137.64465 C 177.60832 131.81746 176.21937 124.44765 181.21333 104.00012 C 182.73571 97.766794 183.98567 92.248902 183.99067 91.7384 C 184.00528 90.286466 170.11302 95.427195 161.23286 100.16028 C 148.24486 107.0828 144.3843 115.36968 148.50825 127.47278 C 151.12553 135.15406 151.11872 134.75675 148.61762 133.79699 C 147.49051 133.36447 145.54762 131.13248 144.29926 128.83801 C 142.35843 125.27078 142.02631 120.41671 142.01411 95.334103 L 142.00044 66.000119 L 138.22309 58.306759 C 136.07032 53.922729 132.19919 48.809745 129.22309 46.418088 C 125.18748 43.174985 124.00048 41.285643 123.99848 38.109494 C 123.99307 27.376928 115.54586 20.005872 103.25044 20.002072 z M 1048.2817 378.60363 C 1052.7871 378.52751 1058.1041 379.49182 1063.4926 381.50793 C 1074.0307 385.45072 1080.0405 391.23804 1080.2602 397.65637 C 1080.4874 404.29064 1077.6063 407.19761 1068.1821 409.84192 C 1058.9976 412.41895 1055.6264 412.46314 1048.9868 410.09387 C 1042.4636 407.76612 1040.3536 405.91831 1037.2368 399.80871 C 1033.6193 392.71799 1033.8836 385.99584 1037.9399 381.93957 C 1040.0832 379.79619 1043.7763 378.67976 1048.2817 378.60363 z " />
    <path
       id="path2"
       style="display:inline;fill:#808000"
       d="M 101.43403 412.15637 C 98.564309 412.19324 95.751425 412.53324 93.332468 413.24035 C 90.128427 414.17697 90.180795 414.2542 94.666452 415.23645 C 97.233116 415.79849 101.31738 417.39944 103.74262 418.79504 C 106.16787 420.19065 108.94426 421.3341 109.91255 421.3341 C 110.88083 421.3341 112.43349 422.24881 113.36176 423.36731 C 114.86706 425.18108 115.32226 425.153 117.58247 423.10754 C 118.97627 421.84616 119.94066 419.67022 119.72505 418.27356 C 119.16744 414.66163 110.04319 412.04575 101.43403 412.15637 z M 104.14497 471.09582 C 100.38025 471.21458 94.990784 476.13166 90.641061 484.27942 C 86.223486 492.55427 87.203144 494.61308 93.000436 489.2384 C 95.750434 486.68886 99.926098 483.26751 102.27973 481.63488 C 104.63337 480.00226 107.18272 478.66613 107.94575 478.66613 C 109.65407 478.66613 109.65988 478.36493 108.02192 474.05676 C 107.23258 471.98064 105.8562 471.04184 104.14497 471.09582 z M 216.65864 516.25598 C 215.53285 516.27324 214.13501 516.76641 212.44966 517.71301 C 209.71972 519.24631 209.66467 519.61643 211.4145 524.66613 C 212.43096 527.59946 213.66581 533.53787 214.15864 537.86145 C 215.0372 545.56912 215.0907 545.65284 216.9145 542.17199 C 217.93755 540.21943 219.26115 534.58233 219.85591 529.64465 C 220.96395 520.44552 220.03602 516.2042 216.65864 516.25598 z M 142.17426 518.72668 C 140.86581 518.742 139.82598 519.2008 139.26801 520.10363 C 136.47817 524.61769 138.148 546.66613 141.27973 546.66613 C 141.83777 546.66613 142.63499 543.81743 143.04926 540.3341 C 143.46353 536.85077 145.02115 531.1574 146.51216 527.68371 C 149.16137 521.51169 149.16631 521.33781 146.69966 520.0177 C 145.06077 519.14059 143.48272 518.71136 142.17426 518.72668 z M 421.83442 558.99231 C 417.15142 559.05467 415.54951 560.68886 416.43598 564.22082 C 417.20871 567.29963 417.62774 567.39279 430.48872 567.3634 C 437.77959 567.3467 443.46177 566.87505 443.11567 566.31457 C 441.67714 563.98502 431.38169 559.80646 425.57466 559.19543 C 424.1585 559.04642 422.91511 558.97791 421.83442 558.99231 z M 495.73481 572.33215 C 495.09674 572.319 494.25835 572.46289 493.11958 572.71301 C 490.85582 573.21022 488.31722 573.71888 487.47895 573.84192 C 484.98482 574.20798 476.89808 579.69057 473.52583 583.30285 C 470.04834 587.02787 470.91162 587.5663 476.05708 584.88098 C 477.92199 583.90772 481.52199 583.08186 484.05708 583.04699 C 486.59217 583.01209 489.71711 582.54821 491.00044 582.01574 C 492.28378 581.48326 494.25549 581.40133 495.38325 581.8341 C 497.96291 582.82401 499.22684 579.74735 498.09419 575.23449 C 497.57088 573.14946 497.13857 572.36107 495.73481 572.33215 z M 777.32661 579.66028 C 773.45545 579.66151 770.04186 580.19248 768.60981 581.38098 C 766.31174 583.28821 766.08043 586.87895 768.12348 588.92199 C 769.1759 589.97441 771.56832 589.67902 776.7563 587.85559 C 780.70385 586.46814 786.42188 585.3341 789.46333 585.3341 C 794.04337 585.3341 794.72853 585.01371 793.44966 583.47278 C 791.50281 581.12696 783.77854 579.65821 777.32661 579.66028 z M 633.03364 601.38098 C 632.50248 601.35498 631.20154 603.00784 630.14301 605.05481 C 628.34506 608.53167 628.43111 608.94906 631.42622 611.38879 C 637.93226 616.68841 642.60131 621.32665 644.78559 624.66028 C 647.74106 629.1709 648.12121 628.46949 646.5395 621.42981 C 645.81897 618.22299 644.09005 613.99729 642.69575 612.03918 C 641.30145 610.08107 639.97382 607.6209 639.74653 606.57238 C 639.35466 604.76458 635.11005 601.48256 633.03364 601.38098 z M 515.66059 625.33606 C 512.12411 625.39792 509.58642 631.24402 509.60786 640.74817 C 509.63216 651.54129 511.94316 656.32788 513.66841 649.15832 C 514.26278 646.68828 515.69171 642.26743 516.84419 639.3341 C 517.99667 636.40078 519.4981 632.92711 520.18012 631.61535 C 521.04667 629.94868 520.8346 628.64289 519.47309 627.28137 C 518.12961 625.93789 516.83942 625.31544 515.66059 625.33606 z M 410.26997 629.07238 C 409.39984 629.01154 408.71749 629.45992 407.66645 630.37707 C 402.66669 634.73993 406.5798 639.75691 415.9438 640.99035 C 418.5419 641.33258 420.91754 641.84875 421.22309 642.13879 C 422.05068 642.92434 426.8824 642.53927 430.66645 641.38488 C 433.78111 640.4347 433.8242 640.30477 431.33247 639.4259 C 427.4086 638.04188 418.57968 633.6584 414.00044 630.82043 C 412.19865 629.70378 411.14009 629.13323 410.26997 629.07238 z M 302.80512 638.66613 C 300.64678 638.66613 296.86952 644.05145 296.72505 647.3341 C 296.69275 648.06743 296.10854 649.06895 295.42622 649.56067 C 294.74389 650.0524 293.97359 654.25304 293.71528 658.89465 L 293.24653 667.3341 L 296.13911 662.00012 C 297.73008 659.06679 301.32357 653.91354 304.12544 650.54895 C 308.89533 644.82106 309.09206 644.24793 307.20161 641.54895 C 306.09115 639.96355 304.1125 638.66613 302.80512 638.66613 z M 576.46919 643.99621 C 574.28901 643.99053 571.63881 644.84902 570.81684 646.38488 C 569.29455 649.22931 574.62424 660.78635 578.81098 663.71887 C 580.25532 664.73052 582.16524 666.38425 583.05317 667.39465 C 584.84709 669.43598 586.66645 669.89071 586.66645 668.29699 C 586.66645 667.72683 585.85627 666.07748 584.86567 664.63098 C 583.17672 662.16469 582.02847 658.58965 580.3813 650.66613 C 580.00018 648.83281 579.65824 646.5828 579.62153 645.66613 C 579.57593 644.52747 578.16488 644.00063 576.46919 643.99621 z M 775.51411 651.28332 C 773.91529 651.28849 773.06131 652.20192 772.20551 654.0802 C 770.45649 657.9189 771.33438 660.53999 774.02387 659.50793 C 774.989 659.13757 776.12594 659.73681 776.54926 660.83996 C 777.15186 662.41031 778.98444 662.71177 784.99262 662.22473 C 789.21332 661.88258 794.29778 660.85412 796.29145 659.93957 C 799.82647 658.31796 800.13913 655.15013 796.6313 656.49621 C 794.81422 657.19349 786.72241 655.45491 782.00044 653.35363 C 778.91613 651.98112 776.92483 651.27876 775.51411 651.28332 z M 356.77192 660.15442 C 355.79671 660.18966 354.64114 660.63331 353.18208 661.41418 C 349.64961 663.3047 350.88444 667.1739 357.14497 673.82629 C 361.8108 678.78417 368.90103 683.98385 371.00825 683.99426 C 371.56285 683.99726 370.26821 681.58676 368.1313 678.63684 C 365.99439 675.68691 363.17235 670.2869 361.85981 666.63684 C 360.1851 661.97964 358.91738 660.07688 356.77192 660.15442 z M 672.08442 684.18762 C 669.96962 684.16029 669.42873 685.3778 668.05512 691.10363 C 666.14819 699.05267 667.23216 715.36231 669.43598 711.88098 C 670.09064 710.84683 670.63569 709.15801 670.64692 708.12903 C 670.65812 707.10005 672.52876 702.31613 674.80512 697.49817 C 679.32757 687.9264 678.94606 684.97597 673.09419 684.2677 C 672.72084 684.22251 672.38654 684.19152 672.08442 684.18762 z M 730.18989 693.42785 C 728.96596 693.45181 727.58717 694.00818 726.08637 695.10559 C 721.79622 698.24262 726.42713 703.63444 739.31294 710.50207 C 747.85775 715.05612 748.80622 713.8048 742.17817 706.71887 C 738.77507 703.08069 735.296 698.58069 734.4477 696.71887 C 733.43514 694.49654 731.97871 693.39284 730.18989 693.42785 z " />
    <path
       id="path3"
       style="display:inline;fill:#ff0000"
       d="M 611.56489 28.6759 C 610.26642 28.578603 608.93926 28.579335 607.59028 28.677853 C 598.59708 29.334646 588.63096 34.303949 579.68989 43.080197 C 570.68572 51.918386 538.80434 89.173636 524.37153 107.72278 C 498.56201 140.89336 479.49469 174.08139 472.81489 197.4591 C 471.01413 203.76137 468.58316 217.26138 467.41255 227.4591 C 465.02544 248.25411 462.82229 257.12618 457.36372 267.93957 C 449.4735 283.57003 431.78045 303.79345 405.92231 326.73645 C 391.49796 339.53465 390.39015 340.24587 386.12348 339.44543 C 377.64789 337.8554 372.91024 331.83993 371.72309 321.16028 C 371.40078 318.26077 372.77542 316.49473 379.64887 310.97668 C 387.16943 304.93918 387.67756 304.22486 384.98091 303.50207 C 383.3411 303.06255 380.65042 302.69568 379.00044 302.68567 C 376.45805 302.67027 375.9725 301.90345 375.82075 297.66613 C 375.42604 286.64452 376.35693 280.34433 379.36567 273.66613 C 381.88543 268.07329 383.15518 266.66613 385.68403 266.66613 C 387.42483 266.66613 392.10335 265.70074 396.08051 264.51965 L 403.31098 262.37121 L 398.65669 260.18176 C 395.22555 258.56756 393.88778 257.01162 393.5727 254.26965 C 393.05218 249.73987 399.01519 238.70842 408.34809 226.93176 C 414.3374 219.37421 415.38074 218.61219 418.73872 219.34973 C 423.71914 220.44362 429.34722 217.38377 434.6352 210.70715 L 438.89106 205.3341 L 435.3852 205.3341 C 433.39481 205.3341 430.39362 203.84839 428.44184 201.8966 C 425.2104 198.66516 425.0394 197.84282 425.61372 188.22863 C 426.39055 175.22457 430.09615 167.29735 436.00239 166.00012 C 440.03033 165.11543 448.00044 159.39212 448.00044 157.38488 C 448.00044 156.81049 445.62759 155.96168 442.72895 155.49817 C 436.01935 154.42526 434.85154 152.19905 435.66645 142.04699 C 436.02953 137.52379 435.63505 130.59706 434.7895 126.65442 C 433.44247 120.37343 433.52161 119.33449 435.44184 118.25988 C 440.285 115.54953 442.66645 111.89702 442.66645 107.17981 L 442.66645 102.35949 L 439.1645 104.65637 C 437.23793 105.91871 432.18529 107.26537 427.93794 107.65051 L 420.21528 108.35168 L 419.3188 101.84192 C 417.10143 85.743139 414.58062 82.046475 401.18794 75.259884 C 393.18225 71.203104 391.54053 71.199366 386.24458 75.230588 C 378.17492 81.373116 362.47632 88.001622 356.03755 87.984494 L 350.00044 87.968869 L 355.33247 84.978634 C 358.26578 83.334387 363.9671 80.51392 368.00044 78.711056 C 379.99152 73.351139 387.82072 67.738403 390.14887 62.83215 C 392.13182 58.653408 392.13415 57.912662 390.17622 53.806759 C 389.00309 51.346696 387.55579 49.334103 386.95942 49.334103 C 386.36305 49.334103 383.50278 51.78395 380.60395 54.779416 C 374.87164 60.702841 368.63084 64.34231 357.84028 68.054806 C 350.52412 70.571937 334.69648 73.008959 336.227 71.382931 C 336.71896 70.860271 342.09753 68.71112 348.17817 66.605588 C 355.66673 64.012535 359.54255 61.940848 360.19184 60.185666 C 361.64327 56.262084 356.26358 40.000119 353.51411 40.000119 C 352.58405 40.000119 346.07725 52.529901 345.95356 54.558713 C 345.83463 56.509257 342.42812 61.334103 341.17036 61.334103 C 340.39938 61.334103 337.08546 63.261551 333.80512 65.617306 C 328.83771 69.184644 327.63452 69.573318 326.602 67.949338 C 325.92016 66.876912 325.65195 65.21083 326.0063 64.246213 C 326.45205 63.032782 325.8318 62.724646 323.99262 63.246213 C 322.53059 63.66083 320.14575 64.336747 318.6938 64.748166 C 317.24183 65.159584 312.44928 64.182042 308.04536 62.576291 C 293.23545 57.176331 282.96016 60.520795 272.97895 73.986447 C 270.60713 77.186266 267.16581 80.281756 265.33247 80.865353 C 263.49914 81.448951 249.67479 81.942534 234.61176 81.963009 C 210.68036 81.995539 206.76854 82.297645 203.61176 84.3634 C 197.04198 88.662589 198.88853 90.666134 209.42036 90.666134 C 219.79369 90.666134 222.57514 91.674356 229.00044 97.755978 C 234.13434 102.6153 234.30765 103.5263 230.33247 104.72278 C 228.68247 105.21939 224.01236 109.16114 219.95356 113.48059 C 212.6861 121.21478 209.85814 122.45595 201.76801 121.45715 C 199.97747 121.23609 196.00044 126.41104 196.00044 128.96301 C 196.00044 131.98319 203.36694 130.84567 233.03364 123.24426 C 272.13345 113.22583 284.83452 110.72171 301.33247 109.77551 C 327.35697 108.28294 341.42336 113.02495 347.48091 125.3341 C 351.07709 132.64171 350.44641 136.84321 344.92817 142.36145 L 340.07856 147.21106 L 320.37348 148.83996 C 287.76916 151.53625 282.11822 152.15937 279.33247 153.36145 C 277.86581 153.99432 273.96645 155.07597 270.66645 155.76574 C 264.75655 157.00103 249.87118 161.14674 228.3813 167.54113 C 217.67338 170.72731 217.40961 170.90639 216.52583 175.61731 C 216.02868 178.26735 216.21772 181.38728 216.94575 182.5509 C 219.14052 186.05886 226.16887 185.87824 232.52973 182.15051 C 239.0734 178.31567 273.35155 168.07194 293.12153 164.04309 C 300.4352 162.55265 310.35837 161.3341 315.17231 161.3341 C 325.19905 161.3341 344.00044 165.08632 344.00044 167.08801 C 344.00044 168.86418 338.44041 178.36518 330.3227 190.4591 C 313.58729 215.39188 293.60421 227.26718 278.22505 221.42004 C 275.41557 220.35188 274.86416 220.59073 274.38716 223.08606 C 273.30601 228.74175 275.93749 234.60434 281.29926 238.4884 L 286.5102 242.26379 L 281.24653 250.31653 C 269.06279 268.9632 253.30538 276.92968 239.66645 271.33801 C 233.59041 268.84695 239.72756 281.5896 247.10981 286.79309 L 253.04536 290.97668 L 249.80903 297.21301 C 247.97276 300.75235 245.47678 309.65624 244.03559 317.80285 C 241.31046 333.20731 237.43783 341.75942 231.09614 346.37903 L 227.49262 349.00403 L 234.47895 350.50207 C 238.32125 351.3261 242.63431 352.00012 244.06489 352.00012 C 247.54315 352.00012 247.42999 352.30297 241.85786 357.87512 C 237.85389 361.87907 237.20163 363.29648 237.95747 366.34192 C 239.21893 371.42456 242.97425 375.08258 253.20356 381.18957 C 266.05241 388.86044 272.938 395.32971 276.68403 403.24817 C 282.07353 414.64062 280.66282 420.86535 270.24458 431.66613 L 264.77778 437.3341 L 270.85591 437.3341 C 275.4672 437.3341 278.24018 436.38691 282.352 433.40832 C 288.32279 429.08311 289.33247 429.69775 289.33247 437.65442 C 289.33247 439.91048 291.83355 447.18331 294.88911 453.81653 C 301.29794 467.72927 301.8585 473.86576 297.49848 482.37121 L 294.57466 488.07434 L 298.05708 487.19934 C 300.05872 486.69696 302.92468 487.06823 304.79731 488.07043 C 309.98099 490.84465 311.04721 488.31666 311.98676 471.03332 C 312.64706 458.88711 313.54845 453.67331 315.97114 448.00012 C 320.55903 437.25667 321.68439 436.79105 320.80317 446.00012 C 320.38214 450.4001 319.65663 458.12589 319.19184 463.16809 C 317.8275 477.96896 320.69325 490.9798 327.57661 501.24426 C 334.17208 511.07942 340.43198 526.41573 342.54536 537.91223 C 347.7127 566.02193 339.91371 590.80169 319.49067 611.16418 C 313.51344 617.12371 306.08359 624.14778 302.97895 626.7716 C 299.87433 629.39544 297.33247 632.12518 297.33247 632.83801 C 297.33247 633.55083 299.45222 634.13293 302.04145 634.13293 C 308.91425 634.13293 315.17609 640.67904 315.26606 647.9552 C 315.35016 654.75847 317.66801 654.17702 318.8852 647.04699 C 320.08678 640.00839 325.63482 629.18688 336.51216 612.66613 L 345.29145 599.3341 L 345.26411 623.3341 C 345.24431 641.6566 344.78721 648.12136 343.33247 650.66613 C 340.98407 654.77422 340.79848 660.26497 342.93403 662.40051 C 345.11742 664.5839 346.66645 664.40938 346.66645 661.98059 C 346.66645 658.4828 354.72041 654.49487 360.66645 655.04895 C 363.59979 655.3223 367.02515 656.00259 368.27778 656.56067 C 370.01115 657.33291 370.75489 656.78091 371.39106 654.24621 C 372.37495 650.32609 370.81845 647.02321 365.45942 641.66418 C 360.32064 636.5254 359.02224 630.80887 358.3188 610.21887 L 357.73286 593.10559 L 374.77973 610.1134 C 384.34024 619.65268 392.19964 628.6312 392.67817 630.56067 C 393.49764 633.86482 398.23387 640.00012 399.96528 640.00012 C 400.42412 640.00012 400.79926 637.97752 400.79926 635.50598 C 400.79926 629.39886 404.18148 624.70085 410.62153 621.85949 C 413.57999 620.55425 416.00044 619.04581 416.00044 618.50598 C 416.00044 615.80009 411.31395 613.3341 406.17231 613.3341 C 400.81181 613.3341 400.14678 612.86734 392.60591 603.81457 C 388.2444 598.57861 381.07268 591.05639 376.67036 587.09973 L 368.66645 579.90637 L 386.00044 580.67004 C 395.53375 581.09017 405.4972 581.70439 408.14106 582.03528 C 411.73121 582.48457 413.53927 581.98268 415.28755 580.0509 C 417.52527 577.57822 417.50911 577.31053 414.90669 574.00207 C 410.97534 569.00419 410.09221 563.42702 412.47505 558.65051 C 414.40815 554.77549 414.35216 554.52301 411.10981 552.39856 C 408.4436 550.65159 407.26634 550.51364 405.53169 551.75012 C 398.97719 556.42217 389.35709 561.52807 384.66645 562.82238 C 376.05339 565.19908 373.44628 562.86087 370.35981 550.00012 C 366.75564 534.98216 367.57339 520.55007 372.58442 510.75793 C 377.42843 501.29222 376.99691 491.97436 371.37348 484.60168 C 367.74195 479.84049 367.69035 479.55161 369.80903 475.96496 C 373.89608 469.04616 372.26218 463.36105 364.87739 458.79699 C 360.629 456.17136 360.3453 455.51618 359.59614 446.5802 C 358.76094 436.61799 353.69404 425.3341 350.05512 425.3341 C 349.04714 425.3341 348.02223 424.84276 347.77778 424.24231 C 347.53334 423.64185 344.63245 421.49887 341.33247 419.48059 C 338.03247 417.46232 336.53378 416.11723 338.00044 416.49231 C 339.46709 416.86739 343.09468 417.80125 346.06294 418.56653 C 356.02627 421.13529 361.86721 430.24594 363.44966 445.69153 C 364.2102 453.11504 364.82633 454.65806 367.63325 456.16028 C 372.19277 458.60045 377.33247 464.99768 377.33247 468.23059 C 377.33247 469.71112 376.11175 472.63814 374.61762 474.73645 L 371.90083 478.55285 L 375.94966 484.1427 C 379.33104 488.81056 380.00044 490.9866 380.00044 497.32043 L 380.00044 504.90637 L 406.33247 511.96887 C 447.42472 522.99058 457.08287 524.41098 490.66645 524.36731 C 514.03594 524.33691 524.1369 523.67876 545.33247 520.81067 C 579.47984 516.18996 598.73253 515.12103 608.09223 517.32238 C 617.3252 519.49395 621.28676 521.53544 631.59419 529.43567 C 636.19022 532.95832 643.7989 537.6762 648.50044 539.92004 C 656.91374 543.93535 662.0417 545.45364 656.49848 542.28723 C 652.67575 540.10359 646.46807 532.52485 646.75239 530.38879 C 647.34079 525.96821 646.45854 522.46019 644.18794 520.18957 C 640.7318 516.73345 622.08635 509.83746 609.05708 507.19738 C 597.48637 504.85287 595.37957 504.91664 560.05708 508.68176 C 525.39279 512.37672 504.261 513.32804 487.43403 511.95324 C 460.5517 509.75691 439.26851 503.37078 418.6645 491.31848 C 408.30825 485.26059 393.3967 474.66613 395.227 474.66613 C 395.80052 474.66613 402.38695 477.9477 409.86176 481.95715 C 450.08236 503.53123 474.45023 506.32847 578.1645 501.27551 C 605.84407 499.92695 619.49076 500.9227 633.63325 505.32434 C 638.1715 506.73681 642.00636 507.7671 642.15473 507.6134 C 642.30311 507.4597 642.77623 504.6341 643.20551 501.3341 C 645.84076 481.07636 648.06388 481.01802 648.93989 501.18371 C 649.24611 508.23306 649.61019 516.50396 649.74848 519.56457 C 649.93677 523.7317 651.08749 526.36035 654.33247 530.02746 C 656.7158 532.72085 658.66645 535.38314 658.66645 535.94543 C 658.66645 537.47947 671.6623 549.3341 673.34419 549.3341 C 674.14635 549.3341 675.73203 551.58412 676.86762 554.3341 C 678.00323 557.0841 679.69547 560.2341 680.62739 561.3341 C 683.79088 565.06817 689.33247 576.0825 689.33247 578.63488 C 689.33247 580.03225 689.88655 581.51764 690.56294 581.93567 C 692.76056 583.29387 696.13397 601.5255 695.84419 610.47668 C 695.47148 621.98958 692.79404 634.37331 688.96919 642.26965 C 684.75835 650.9628 676.64227 663.45645 671.93403 668.49426 C 667.61333 673.11738 664.48504 679.59604 665.89301 681.00403 C 666.39825 681.50926 667.33141 681.08163 667.96723 680.05285 C 668.93321 678.48986 670.04406 678.45684 674.71919 679.85754 C 681.80699 681.98111 686.66645 687.10805 686.66645 692.46106 C 686.66645 695.49506 687.05224 696.14753 688.17817 695.0216 C 689.00928 694.19049 689.68989 690.39773 689.68989 686.59192 C 689.68989 682.78608 690.20023 678.09643 690.82466 676.17004 C 694.98101 663.34751 699.56638 650.28711 702.12153 644.00012 C 704.7793 637.46062 705.18739 637.02761 705.87739 640.00012 C 712.9497 670.4675 714.69541 680.91076 713.89887 687.95129 C 713.20849 694.0534 713.47752 695.95378 715.28364 697.75988 C 718.4072 700.88344 719.54205 700.57212 720.47114 696.3341 C 721.66346 690.89544 727.43662 687.36526 735.33247 687.25012 C 741.38584 687.16182 742.03068 686.85525 742.32466 683.91028 C 742.69838 680.16618 739.58242 676.21688 733.94184 673.28332 C 728.44297 670.42345 724.61723 662.74664 721.33247 647.98059 C 719.78515 641.02493 717.953 634.76318 717.2602 634.06653 C 715.43006 632.22617 715.71543 629.06383 717.66645 629.56848 C 718.58311 629.80558 727.39103 635.09808 737.23872 641.32824 C 748.81407 648.65143 756.00382 654.11433 757.57856 656.78332 C 759.52699 660.08566 764.76377 664.00012 767.23286 664.00012 C 767.47494 664.00012 767.36509 661.26701 766.98872 657.92785 C 766.33067 652.0897 766.54103 651.638 772.46723 646.11926 C 778.35461 640.63668 778.52041 640.28237 776.20356 638.18567 C 774.34594 636.50454 772.3369 636.18752 767.61958 636.8341 C 762.38525 637.55155 760.869 637.20227 757.50825 634.50598 C 748.82669 627.54088 736.07186 618.66613 734.74262 618.66613 C 733.96784 618.66613 733.33247 618.06743 733.33247 617.3341 C 733.33247 616.60077 732.20738 616.00012 730.83051 616.00012 C 729.45365 616.00012 727.59375 615.1169 726.6977 614.03723 C 725.31901 612.37601 725.96005 611.92315 730.86762 611.09387 C 734.05721 610.5549 737.1192 610.23968 737.67231 610.3927 C 738.22542 610.54572 744.04202 609.47609 750.59809 608.01574 C 757.15418 606.55542 763.4064 605.70049 764.49262 606.11731 C 765.70553 606.58275 767.36158 605.51223 768.78364 603.34192 C 771.03417 599.90718 771.00927 599.71866 767.88325 596.63293 C 761.41168 590.24476 760.97549 589.30046 761.78364 583.40442 C 762.49791 578.19322 762.26444 577.57766 759.01216 576.09582 C 755.69342 574.5837 755.17341 574.82583 751.05708 579.78137 C 748.63483 582.69744 743.33891 587.28362 739.28755 589.97278 C 728.56051 597.09297 725.5121 596.09203 719.43403 583.4552 C 711.87218 567.73344 709.84957 555.29058 712.93403 543.47278 C 713.91102 539.72953 714.36528 534.86613 713.9438 532.66613 C 713.16748 528.614 710.6476 522.55409 709.23091 521.3341 C 708.80512 520.96743 706.72914 519.28278 704.61958 517.59192 C 701.51054 515.09994 701.05685 514.08395 702.21919 512.22278 C 704.02408 509.33265 703.50463 501.94995 701.31098 499.30676 C 700.39598 498.20425 697.08924 496.17192 693.96333 494.78918 C 688.94978 492.57144 688.17209 491.63004 687.35786 486.81067 C 686.85019 483.80579 685.88675 481.00961 685.21723 480.59582 C 684.5477 480.18203 683.99808 478.82806 683.99458 477.58801 C 683.98398 473.84772 675.70896 466.08033 669.60005 464.07629 C 662.02628 461.59171 661.29232 460.00012 667.72114 460.00012 C 674.37882 460.00012 682.40554 465.68398 685.81489 472.81262 C 687.17952 475.66595 688.7522 478.91902 689.31098 480.04309 C 689.86977 481.16716 690.73713 483.94797 691.23676 486.22278 C 691.96701 489.54753 693.27478 490.79099 697.90864 492.56067 C 707.8286 496.34913 709.59173 500.39328 706.09223 511.3341 C 705.44975 513.34276 706.23696 514.65749 709.28559 516.66613 C 715.9163 521.03491 717.96766 526.89799 717.79926 541.00012 C 717.67272 551.59684 717.95882 553.32435 719.82661 553.26965 C 721.02225 553.23465 728.13721 552.44021 735.63716 551.50403 C 745.28653 550.29952 750.07611 549.07568 752.01997 547.31653 C 755.24627 544.39675 769.7606 542.78768 771.24262 545.18567 C 772.45138 547.14147 782.95961 547.08389 787.3188 545.09778 C 790.06226 543.84776 793.29544 544.00576 803.23091 545.87707 L 815.70161 548.22668 L 824.18403 544.6759 C 835.33751 540.00781 840.5763 538.73779 848.81684 538.69934 C 855.83038 538.66664 868.72128 543.16514 879.67426 549.46887 L 885.11958 552.60363 L 892.227 550.12121 C 896.13556 548.75639 902.63314 545.78879 906.66645 543.52551 C 913.1439 539.89073 915.47815 539.35429 926.66645 538.92785 C 938.30451 538.48426 939.86343 538.72949 945.86958 541.9591 C 952.35389 545.44587 952.51034 545.46199 965.102 543.87707 C 977.36284 542.33379 977.8724 542.37444 980.05708 545.07238 C 982.07157 547.5602 983.40887 547.80554 992.28364 547.32043 C 1022.9489 545.64425 1057.7016 532.5873 1080.9008 514.02551 C 1111.9663 489.17008 1127.0953 452.24555 1122.6743 412.06848 C 1120.8625 395.60328 1118.4044 385.95954 1113.2895 375.24231 C 1101.9633 351.51033 1080.8607 340.82102 1045.3325 340.81848 C 1023.9937 340.81648 1016.3327 343.45493 1005.1352 354.65246 C 998.89908 360.88857 997.09705 363.77764 994.79145 371.24231 C 986.32143 398.66505 999.01958 428.78623 1023.9848 440.49231 C 1031.4877 444.01039 1034.1439 444.55116 1043.9848 444.56457 C 1055.6384 444.58047 1060.4872 443.46006 1073.5024 437.74426 C 1078.4558 435.56887 1081.5443 433.26178 1082.5961 430.95324 C 1084.687 426.36427 1085.9013 415.77616 1084.8266 411.49426 L 1083.9731 408.09778 L 1079.2856 411.27942 C 1074.446 414.56365 1064.2903 417.3341 1057.0883 417.3341 C 1044.6243 417.3341 1033.6266 409.13079 1030.0805 397.18957 C 1024.7327 379.18169 1037.838 368.55987 1058.7836 373.9259 C 1081.3683 379.71182 1089.9958 391.70925 1089.9985 417.3341 C 1089.9985 429.58695 1089.8304 430.30569 1084.7836 439.3341 C 1076.7021 453.79139 1068.9492 464.16619 1060.1332 472.32824 C 1053.1364 478.80617 1048.5104 481.56799 1031.1684 489.62121 C 1027.697 491.23324 995.62706 490.16056 985.33247 488.08801 C 981.29914 487.276 971.39912 486.00848 963.33247 485.2716 C 953.98071 484.41732 945.18907 482.69942 939.07075 480.52942 C 928.55282 476.79897 920.98982 476.69075 896.81098 479.92395 C 887.67805 481.14521 883.44599 481.14584 878.38325 479.93176 C 872.15299 478.43714 860.8099 473.20344 858.06684 470.55676 C 856.35407 468.90418 843.03354 468.99457 842.00044 470.66613 C 840.85968 472.51192 805.80672 472.36558 787.31098 470.43762 C 773.4983 468.99781 771.92028 469.07094 767.16255 471.37512 C 762.65607 473.55761 759.3048 473.82712 740.78169 473.49231 C 719.60432 473.10952 719.55427 473.10161 714.74458 469.23645 C 711.76176 466.83939 706.14078 464.4018 699.99067 462.83996 C 689.1415 460.0848 686.85587 457.59038 686.727 448.35949 L 686.66645 444.0509 L 680.83833 444.84973 C 675.88657 445.52845 673.52049 444.91282 665.10981 440.75598 C 658.80546 437.64019 652.42659 435.57617 647.54536 435.07238 C 638.77767 434.16749 636.00044 431.55852 636.00044 424.22668 C 636.00044 420.2162 635.66549 419.79287 633.00044 420.44543 C 616.97987 424.3682 612.98603 424.41325 599.50825 420.82043 C 592.27147 418.89129 579.21637 413.96111 570.49653 409.86535 C 561.77669 405.76961 551.49806 401.54899 547.65473 400.48645 C 543.47814 399.33178 529.13426 398.06659 512.00044 397.33996 C 481.43755 396.04382 473.19162 394.63281 449.80512 386.69934 C 434.75001 381.59213 405.31481 369.42295 407.89106 369.37121 C 413.63505 369.25585 428.21834 372.79169 434.00044 375.70129 C 443.95727 380.71166 461.88864 386.48627 474.66645 388.79699 C 480.93286 389.93021 499.71032 391.30129 516.66645 391.8634 C 543.82654 392.76378 548.24722 393.22603 555.33247 395.91028 C 567.80783 400.63655 568.38655 400.65311 570.92817 396.33801 C 572.17227 394.22581 575.32227 391.3488 577.92817 389.94543 C 582.17497 387.65838 582.66645 386.82527 582.66645 381.91028 C 582.66645 374.4397 587.32591 356.77795 590.85981 350.85168 C 594.71415 344.38806 601.17029 337.54153 605.60005 335.22082 C 607.58028 334.18339 612.23095 333.3341 615.93403 333.3341 C 621.95229 333.3341 623.2036 333.87125 627.73286 338.40051 C 632.75693 343.42458 636.02368 351.31178 637.99262 363.17199 L 638.852 368.34387 L 643.54341 363.83801 C 650.39863 357.25427 653.33247 350.70743 653.33247 342.00012 C 653.33247 330.04161 646.33808 319.77628 634.00044 313.63098 C 620.81697 307.06436 580.2868 306.25647 555.60005 312.06848 C 544.21733 314.74831 542.24639 315.63284 540.29536 318.93567 C 535.18601 327.5851 523.69862 332.7029 497.60395 337.95324 C 476.23467 342.25284 467.03694 345.2801 457.33247 351.2091 C 450.85086 355.16908 441.33247 358.58555 441.33247 356.95129 C 441.33247 355.52644 460.16148 343.89692 466.5395 341.38293 C 470.39546 339.86305 482.35304 336.86856 493.10981 334.72863 C 503.86658 332.58871 515.15851 329.94691 518.20356 328.85754 C 525.78283 326.14604 533.91466 320.57297 537.8852 315.36731 C 541.80667 310.226 550.10286 307.76289 572.00044 305.2384 C 585.69226 303.65991 629.095 304.3032 633.92426 306.15637 C 636.21717 307.03624 640.84692 302.65069 658.38716 282.97863 L 668.10591 272.07824 L 664.38716 271.03918 C 662.34136 270.4679 652.26708 270.01395 642.00044 270.03137 C 622.26473 270.06487 606.28286 272.62238 585.24458 279.1134 C 576.41333 281.83815 574.16559 282.05591 567.02583 280.87512 C 556.28966 279.09953 545.90034 281.37457 538.30122 287.16613 C 532.36398 291.69111 518.05718 301.44812 514.66645 303.28528 C 513.56645 303.88126 516.47321 300.46377 521.12544 295.68957 C 536.84629 279.55654 552.14139 273.12359 567.96137 275.99231 C 575.46861 277.35363 577.38139 277.13728 592.38716 273.2091 C 617.27634 266.69366 624.84657 265.43612 639.51997 265.38293 C 653.1723 265.33343 671.76779 268.08697 679.44575 271.29504 C 684.79293 273.52924 688.83745 281.71392 691.65083 295.99426 L 693.76606 306.72278 L 697.62153 301.02942 C 704.84129 290.36595 708.00044 282.97878 708.00044 276.76184 C 708.00044 268.861 704.07246 258.68091 696.68012 247.4259 C 693.37308 242.39083 690.66645 237.71425 690.66645 237.03332 C 690.66645 235.28862 704.49627 210.47433 711.61372 199.44738 C 714.8868 194.37642 720.84946 186.78295 724.86567 182.57238 L 732.16841 174.91613 L 728.41841 174.13098 C 699.80929 168.13799 683.29125 172.11005 664.76801 189.43762 C 657.06455 196.64382 655.63409 197.46586 652.1352 196.69738 C 639.55038 193.9333 619.90795 202.80551 588.00044 225.66809 C 564.72901 242.34267 532.49066 261.14449 542.66645 252.10754 C 545.23311 249.82812 552.13377 245.01787 558.00044 241.41809 C 563.86709 237.8183 578.26713 228.15291 590.00044 219.93957 C 620.19214 198.80533 637.7184 190.93195 650.102 192.94153 C 653.9274 193.56229 655.21829 192.78226 662.64887 185.35168 C 668.08663 179.91394 673.97639 175.63657 679.79926 172.8966 C 687.61838 169.21733 690.33604 168.66515 702.77387 168.22278 C 717.91 167.68443 743.05958 171.53697 748.75044 175.26574 C 752.64039 177.81455 756.95581 187.40928 758.95747 197.96106 C 759.86767 202.75919 761.21677 206.48335 761.95747 206.23645 C 762.69817 205.98955 764.96234 202.61751 766.98676 198.74231 C 771.72159 189.67884 771.89419 180.66976 767.51216 171.3341 C 764.26564 164.41763 753.61619 153.44423 745.08833 148.22863 L 740.17622 145.22473 L 742.14887 138.5802 C 746.83444 122.80219 756.81329 105.60207 765.68989 98.004025 L 771.14692 93.334103 L 755.90669 93.343869 C 724.64197 93.363029 695.66766 104.82788 678.25239 124.07238 C 672.10694 130.86335 668.03369 133.55344 647.91059 144.10949 C 583.95662 177.65807 565.4611 190.28152 551.37348 210.00012 C 543.81408 220.58109 540.78801 226.78697 535.49458 242.56457 C 531.7185 253.81953 521.64214 274.08518 520.42622 272.86926 C 520.20923 272.65227 522.93594 263.81904 526.48676 253.2384 C 544.09871 200.75901 561.70356 182.57125 626.18794 150.2384 C 648.10805 139.24752 662.85047 130.20685 673.68989 121.10754 C 704.8839 94.92126 734.27372 84.058146 763.42622 87.937619 C 785.34194 90.854058 793.65164 95.244714 801.00434 107.79113 C 804.42098 113.62119 804.61467 113.74119 805.48872 110.60754 C 805.99098 108.80687 806.46054 102.47773 806.53364 96.543088 C 806.64256 87.699762 806.11576 84.712016 803.61372 79.980588 C 798.90715 71.080353 793.07656 68.649856 776.66645 68.746213 C 750.645 68.899003 725.10893 78.340071 651.93403 114.86535 C 602.13446 139.72285 601.74634 139.94986 578.602 157.55285 C 550.5618 178.87955 525.93087 202.86639 517.90473 216.66613 C 510.62825 229.177 503.81583 245.38952 496.52778 267.53723 C 489.62507 288.5139 486.36411 293.67587 470.82856 308.23059 C 463.34205 315.24443 455.3904 320.82047 442.6352 328.00012 C 423.55096 338.74227 409.2099 350.76567 397.81489 365.57434 C 390.48928 375.09453 390.96103 375.2495 373.19966 357.47668 C 362.98671 347.25714 359.35541 342.54161 355.23872 334.15051 C 350.54144 324.57603 350.03317 322.47512 349.56098 310.71887 C 348.68877 289.00343 353.85062 274.81707 378.71333 230.58606 C 386.20456 217.25906 395.17843 200.27466 398.65669 192.84387 C 413.80098 160.49021 419.541 130.19777 414.08442 111.42785 C 412.85092 107.18478 412.12572 103.43147 412.47114 103.08606 C 413.25163 102.30557 419.09827 112.1797 422.09223 119.3341 C 424.06644 124.05165 424.14007 126.19071 422.72895 137.8634 C 419.53528 164.28128 411.90735 183.74519 387.57661 227.56262 C 360.4531 276.40955 355.05955 290.96139 356.35981 311.80285 C 356.95903 321.4077 357.81977 324.52682 362.43598 333.8302 C 367.67084 344.38035 379.3819 358.24638 387.61176 363.63879 C 390.89646 365.791 391.06432 365.74463 393.78364 361.9259 C 399.10822 354.44862 412.7025 341.00384 420.66645 335.33801 C 425.06645 332.20768 435.47341 325.62052 443.79341 320.69934 C 459.13826 311.623 475.01665 298.08806 481.75434 288.34192 C 483.65852 285.5875 489.20826 272.23278 494.08637 258.66613 C 498.96451 245.09951 504.97768 229.59586 507.4477 224.21301 C 518.76317 199.55342 537.18877 181.0015 584.41059 146.72668 C 597.59574 137.15656 601.27627 133.83777 600.55122 132.16613 C 595.92655 121.50386 593.08581 107.56038 592.8852 94.539181 L 592.66645 80.410275 L 585.33247 85.767697 C 561.74424 102.9994 537.29424 127.20393 522.35981 148.10754 C 511.19201 163.73904 498.82653 188.28682 492.86372 206.66613 C 490.36561 214.36613 485.50694 233.26617 482.06489 248.66613 C 473.38122 287.5175 467.01786 300.11253 453.16059 305.88488 C 450.49914 306.99353 446.44912 309.47678 444.16059 311.40246 C 441.87206 313.32813 440.00044 314.27976 440.00044 313.51574 C 440.00044 309.62247 443.38759 305.735 448.69184 303.54113 C 451.93107 302.20139 457.05754 298.70127 460.08442 295.76379 C 468.98215 287.12883 472.53566 277.50891 479.20356 244.00012 C 487.37887 202.916 494.3212 183.79192 510.27387 158.41028 C 514.66987 151.416 521.74607 141.26342 526.00044 135.84778 C 537.12414 121.68768 563.39616 96.054569 582.26801 80.949338 C 591.21543 73.787742 599.78775 66.170954 601.31684 64.023556 C 604.98941 58.865909 618.75495 52.354894 628.33247 51.246213 C 632.54911 50.758097 636.00044 49.931431 636.00044 49.408322 C 636.00044 46.689249 626.90926 35.317127 622.29536 32.263791 C 619.09793 30.147832 615.4603 28.96779 611.56489 28.6759 z M 322.95747 69.640744 C 324.20049 69.732934 323.86562 71.308282 321.66059 73.671994 C 318.89561 76.63598 318.89417 76.699187 321.43403 79.814572 C 322.9644 81.691715 324.00044 85.007643 324.00044 88.029416 C 324.00044 95.686238 318.28946 100.00924 308.23091 99.968869 C 303.95428 99.951699 298.72577 98.98403 296.20161 97.740353 C 290.83674 95.097036 287.27015 88.420936 288.53364 83.386838 C 289.5916 79.171592 294.82306 76.658975 308.45551 73.816525 C 313.55631 72.752981 318.89239 71.260371 320.31294 70.500119 C 321.50159 69.863972 322.39246 69.598841 322.95747 69.640744 z M 1115.725 156.06848 C 1109.3877 156.52587 1102.789 159.80247 1097.4711 166.25403 C 1087.2447 178.66034 1082.5571 196.05363 1082.561 221.56848 C 1082.561 244.01605 1085.1643 260.86389 1091.1977 277.53137 C 1097.5 294.94173 1099.5987 306.52499 1100.7016 329.97473 L 1101.6411 349.95129 L 1107.2778 356.21887 C 1110.3772 359.66621 1114.657 365.82816 1116.7895 369.91223 L 1120.6665 377.33801 L 1121.686 371.00207 C 1122.2469 367.51752 1122.7681 355.66612 1122.8442 344.66613 C 1123.0072 321.1228 1120.7762 307.17551 1113.8071 288.19543 C 1103.8415 261.0544 1102.6508 257.45312 1100.477 247.86926 C 1098.9841 241.28706 1098.1991 231.56111 1098.1196 218.66613 C 1098.0177 202.1284 1098.432 197.95678 1100.9926 189.81457 C 1108.1571 167.03246 1121.9022 165.86756 1131.4477 187.23254 C 1133.5847 192.01552 1135.7395 195.94525 1136.2368 195.96496 C 1137.7223 196.02386 1139.0365 181.78503 1138.1137 175.63098 C 1136.1258 162.37466 1126.2873 155.30616 1115.725 156.06848 z M 369.40473 170.66613 C 373.00073 170.66613 360.38788 185.77287 343.18598 202.07043 C 321.10371 222.99185 313.59537 232.77097 302.80512 254.66613 C 298.64908 263.09947 292.19864 274.50407 288.46919 280.00988 C 272.61458 303.41608 265.88582 321.88478 267.09809 338.66613 C 268.10694 352.63151 272.07901 362.97976 282.77583 379.50207 C 287.84922 387.33846 292.00044 394.3592 292.00044 395.10363 C 292.00044 395.84807 292.95336 397.50852 294.11762 398.79504 C 295.2819 400.08155 296.02404 402.22338 295.76801 403.55285 C 295.32945 405.83009 295.16174 405.81629 292.85786 403.31848 C 284.06439 393.78486 262.66225 354.18354 260.07856 342.66613 C 254.927 319.70168 261.83417 301.27509 284.477 277.5802 C 295.28192 266.27324 295.6428 265.68083 299.77192 252.48449 C 305.41152 234.46075 311.69129 225.27753 326.40083 213.54113 C 337.80801 204.43961 345.05918 197.19671 360.41645 179.56457 C 364.67871 174.67096 368.72377 170.66613 369.40473 170.66613 z M 371.81098 398.65832 C 371.85348 398.50651 372.74057 398.65232 374.66645 399.17199 C 376.49979 399.66662 381.29914 400.69477 385.33247 401.45715 C 389.36578 402.21952 398.3658 404.57878 405.33247 406.69934 C 433.91924 415.40077 461.82777 420.09422 504.00044 423.29113 C 553.1443 427.01651 573.71269 430.88606 608.00044 442.86145 C 622.64912 447.97766 644.00044 458.09314 644.00044 459.91613 C 644.00044 461.78962 643.08957 461.62744 636.0727 458.51574 C 618.78746 450.85047 580.20292 440.27095 536.66645 431.25793 C 513.90483 426.54578 510.87833 426.24008 478.00044 425.32824 C 444.65301 424.40337 442.79824 424.21022 429.26606 420.26184 C 412.64861 415.41322 371.51364 399.72101 371.81098 398.65832 z M 125.10005 410.66613 C 121.03286 410.66613 120.98442 410.73668 123.28559 413.27942 C 128.05712 418.55189 122.92088 428.8775 113.602 432.74817 C 110.31814 434.11214 110.64739 434.24799 117.33247 434.27551 C 122.69831 434.29761 127.83198 435.61913 136.46528 439.20129 C 154.11931 446.52635 166.32754 452.99148 164.00044 453.78332 C 162.90044 454.15762 153.13834 455.80137 142.30708 457.43567 C 126.15205 459.87326 121.69162 460.12965 117.48481 458.86926 C 110.54996 456.79152 107.2539 456.93612 104.76216 459.42785 C 102.13803 462.05198 102.04348 465.3341 104.59223 465.3341 C 105.65134 465.3341 108.20069 466.78126 110.25825 468.5509 C 113.5266 471.36189 114.00044 472.7085 114.00044 479.21301 L 114.00044 486.65832 L 118.17231 486.66223 C 121.51884 486.66523 123.34467 485.44645 127.39301 480.50598 C 133.40713 473.16655 137.3553 471.34626 152.90864 468.73254 C 159.37582 467.64574 167.04164 466.33612 169.9438 465.82434 L 175.21919 464.89465 L 171.27583 470.21887 C 169.107 473.14667 162.83246 481.62647 157.33247 489.06457 C 151.83247 496.50266 146.27991 502.9481 144.99262 503.38684 C 140.82016 504.80894 134.66645 510.83424 134.66645 513.49817 C 134.66645 515.65065 135.10735 515.85787 137.24653 514.71301 C 143.16992 511.5429 153.23665 515.40312 156.24067 521.99621 C 157.99821 525.85359 159.02133 526.11815 161.34809 523.31457 C 162.43863 522.00056 162.7456 519.26805 162.227 515.48449 C 161.48344 510.05963 161.79129 509.28283 166.852 503.83606 C 169.83418 500.62638 176.26278 492.63297 181.13716 486.07434 C 187.31622 477.7602 190.06998 474.93551 190.23286 476.74231 C 190.36135 478.16761 191.19419 488.23346 192.08247 499.11145 C 193.5724 517.35746 193.92273 518.99261 196.60981 520.21692 C 199.0734 521.3394 200.27374 520.79322 204.39497 516.67199 C 208.92169 512.14526 209.76586 511.82553 216.29341 512.17199 C 225.5296 512.66221 226.09588 510.11951 218.6313 501.65246 C 211.50856 493.57317 208.00044 486.67252 208.00044 480.7384 C 208.00044 476.56692 208.56448 475.7987 213.00044 473.93762 C 228.91619 467.26027 251.08286 463.86997 261.07466 466.5841 C 270.45089 469.13102 281.33247 480.59882 281.33247 487.93371 C 281.33247 491.88743 283.15544 491.31423 287.95161 485.85168 C 295.87936 476.82248 296.56876 470.35851 290.8188 458.96106 C 288.70206 454.76531 286.19807 448.75853 285.2563 445.61145 C 283.94658 441.23489 283.05048 440.09599 281.43989 440.76574 C 275.70716 443.14965 269.59964 443.66052 261.52973 442.43176 C 256.65487 441.68948 252.1811 440.62284 251.58833 440.06262 C 250.99555 439.5024 253.3962 437.19268 256.92231 434.92981 C 267.76583 427.97095 274.66645 419.27945 274.66645 412.5802 C 274.66645 409.35521 272.05875 410.41037 264.87934 416.54113 C 241.21364 436.75019 210.14651 447.73336 186.86567 444.12121 C 168.75125 441.31067 155.2203 434.2781 138.30708 418.88293 C 131.27644 412.48335 128.35582 410.66613 125.10005 410.66613 z M 606.42231 522.69543 C 605.18839 522.67933 603.79797 523.86743 603.33247 525.3341 C 602.86696 526.80076 601.96696 528.00012 601.33247 528.00012 C 600.69797 528.00012 599.77874 529.26141 599.2895 530.80285 C 597.7871 535.53652 579.14274 552.65542 570.99848 556.77942 C 566.78247 558.91426 563.03311 560.71469 562.66645 560.77942 C 562.29978 560.84412 560.94978 561.2947 559.66645 561.78137 C 554.4304 563.76698 552.37182 564.26301 546.00044 565.07434 C 535.78185 566.37558 525.79922 566.07376 513.07661 564.07824 C 502.27515 562.38406 501.23028 562.42858 497.74262 564.72668 L 494.00044 567.19348 L 497.3227 567.98645 C 503.88195 569.55507 505.80236 578.67616 501.33051 587.01965 C 498.81576 591.71165 499.83765 594.43655 502.39692 589.8634 C 503.84237 587.28053 515.51594 583.12758 524.66645 581.93957 C 528.33312 581.46353 531.63377 580.88968 532.00044 580.66613 C 532.3671 580.44259 535.9671 579.87851 540.00044 579.41223 C 544.03376 578.94595 548.98377 578.24075 551.00044 577.84387 C 554.86865 577.08259 556.03309 579.08941 552.79341 580.93371 C 551.76327 581.52015 546.51391 586.03678 541.12739 590.97082 C 527.27386 603.66064 522.2993 607.98588 521.42622 608.09973 C 515.0897 608.92597 508.18275 612.34049 507.83247 614.82043 C 507.74077 615.46942 507.55506 616.74948 507.41841 617.66613 C 506.95972 620.74288 509.38984 622.57804 512.43598 621.45324 C 517.70711 619.50687 524.20451 622.68436 527.51216 628.82629 C 530.15497 633.73371 531.43535 634.18325 535.01997 631.46301 C 536.58858 630.27264 537.63975 627.06167 538.17036 621.83801 C 539.05656 613.11352 541.40905 609.05108 550.64692 600.28918 C 553.95822 597.14848 559.07753 592.19848 562.02387 589.28918 C 564.97022 586.37988 567.85334 584.00012 568.43208 584.00012 C 569.40873 584.00012 568.86859 600.04175 567.23091 619.64465 C 566.84904 624.2156 565.31481 630.71828 563.82075 634.09582 C 562.10291 637.97928 561.41658 641.48562 561.95551 643.63293 L 562.80903 647.02746 L 566.89497 642.84778 C 570.3317 639.3326 571.96658 638.67345 577.15864 638.7091 C 580.55496 638.7324 584.49889 639.63248 585.92231 640.7091 C 587.9544 642.24609 588.73595 642.30868 589.56684 641.00012 C 591.36778 638.16384 590.80678 636.25257 586.83637 631.71301 C 583.17185 627.52316 583.05532 626.98728 584.1352 619.3341 C 584.75604 614.93411 585.65079 605.0341 586.12544 597.3341 C 586.60009 589.63411 587.17219 583.12741 587.39692 582.87512 C 587.62165 582.62284 590.03449 585.77284 592.75825 589.87512 C 595.48202 593.9774 598.17683 597.3341 598.74653 597.3341 C 599.31622 597.3341 601.05995 599.40116 602.62153 601.92785 C 604.18311 604.45454 607.23203 608.41697 609.39692 610.73449 C 611.56182 613.05202 613.33247 615.47755 613.33247 616.12512 C 613.33247 617.75295 620.21355 617.04742 620.7602 615.3634 C 621.0035 614.61389 621.85345 611.45755 622.64887 608.34973 C 623.711 604.19984 625.37968 601.82489 628.93598 599.40832 C 631.59927 597.59857 634.27828 596.4273 634.88911 596.80481 C 636.19446 597.61157 636.33283 595.75398 635.18989 592.77551 C 634.74476 591.61554 633.6237 590.66613 632.6977 590.66613 C 629.72607 590.66613 614.74915 585.50587 612.54536 583.72278 C 607.24941 579.43779 604.00044 575.41347 604.00044 573.13879 C 604.00044 571.77921 604.50395 570.66613 605.11958 570.66613 C 605.7352 570.66613 606.87603 569.31613 607.65473 567.66613 C 610.75597 561.09489 628.95649 542.05655 633.52192 540.60754 C 638.08986 539.15773 613.31988 522.78546 606.42231 522.69543 z " />
    <path
       id="path4"
       style="fill:#ffcc00"
       d="M 290.0688 116.00012 C 288.50266 116.00012 288.40249 116.75532 289.53364 120.00012 C 290.30056 122.20012 291.1684 124.00012 291.46333 124.00012 C 291.75826 124.00012 292.00044 122.20012 292.00044 120.00012 C 292.00044 117.39732 291.32506 116.00012 290.0688 116.00012 z M 275.00434 119.03137 C 274.34761 119.03457 273.28959 119.26167 272.21723 119.65832 L 269.3813 120.70715 L 272.35786 125.35363 L 275.33247 130.00012 L 275.75434 124.86535 C 275.98632 122.04179 275.92452 119.47889 275.61567 119.17004 C 275.51916 119.07353 275.30286 119.02991 275.00434 119.03137 z M 255.63911 123.4552 C 255.2055 123.46055 254.662 123.54765 253.98091 123.67785 C 249.07181 124.61628 248.82933 126.09221 252.95747 129.92004 C 254.9825 131.79775 256.79594 133.3341 256.98676 133.3341 C 257.17759 133.3341 257.33247 131.0173 257.33247 128.18567 C 257.33247 124.45069 257.18772 123.43606 255.63911 123.4552 z M 232.10591 129.6427 C 231.85723 129.65266 231.5659 129.72674 231.22505 129.85754 C 230.06507 130.30267 228.24601 130.66613 227.18403 130.66613 C 225.72684 130.66613 225.97988 131.64915 228.21333 134.67004 C 231.40619 138.98863 233.27468 138.08061 233.31294 132.19153 C 233.32473 130.37758 232.99402 129.60711 232.10591 129.6427 z M 214.28559 134.12512 C 213.8589 134.13276 213.32726 134.21364 212.66645 134.33996 C 210.83312 134.69042 209.33247 135.15624 209.33247 135.37512 C 209.33247 135.86866 215.2074 142.60952 215.66645 142.6427 C 215.84979 142.6559 216.00044 140.65063 216.00044 138.18567 C 216.00044 135.01255 215.80948 134.09785 214.28559 134.12512 z M 297.75239 138.79113 C 297.48292 138.79328 297.28374 139.02938 297.23091 139.58801 C 297.17481 140.18129 296.92775 141.71679 296.68208 143.00012 C 296.42726 144.33127 297.04395 145.3341 298.11762 145.3341 C 299.15273 145.3341 300.00044 144.1696 300.00044 142.74621 C 300.00044 140.88956 298.5608 138.78471 297.75239 138.79113 z M 282.02192 140.23059 C 281.5374 140.28455 280.72773 141.60407 279.43012 144.2052 C 276.8271 149.42309 276.80121 149.22345 280.00044 148.38684 C 281.8893 147.89289 282.66645 146.56702 282.66645 143.84387 C 282.66645 141.38726 282.50644 140.17663 282.02192 140.23059 z M 262.50239 146.77746 C 262.27155 146.79456 261.76175 147.44191 260.81489 148.66613 C 258.29863 151.91946 258.09491 153.74287 260.33247 153.00598 C 261.24914 152.70409 262.1969 151.00452 262.43794 149.22863 C 262.66596 147.54865 262.76401 146.75809 262.50239 146.77746 z M 241.1645 152.96496 C 240.59654 152.97968 239.91597 153.37366 239.24848 154.25403 C 238.24221 155.58124 237.39877 157.11614 237.37544 157.66613 C 237.29774 159.49942 241.40629 158.69627 242.16059 156.73059 C 243.01844 154.49509 242.32746 152.93484 241.1645 152.96496 z M 223.06489 154.78528 C 222.8255 154.77878 222.66645 155.24073 222.66645 156.28137 C 222.66645 157.4138 221.76645 159.08721 220.66645 160.00012 C 218.02817 162.18971 218.10105 164.50309 220.77583 163.47668 C 221.93581 163.03155 223.4475 162.66613 224.1352 162.66613 C 224.8229 162.66613 225.0992 161.09335 224.75044 159.17004 C 224.26929 156.51669 223.52191 154.79768 223.06489 154.78528 z " />
    <path
       style="fill:#ffff00"
       d="m 128.60677,197.98195 c 4.21046,-7.18461 15.70992,-15.03434 30.22442,-20.63173 5.93943,-2.29048 11.07387,-3.88961 11.40986,-3.55362 0.336,0.336 -2.13857,4.34581 -5.49905,8.91069 -6.24342,8.48109 -8.33681,13.37891 -6.78882,15.8836 0.99578,1.61122 7.33404,1.76001 23.00491,0.54007 l 10.95808,-0.85307 -3.76515,-4.80561 c -10.59758,-13.5261 -8.79568,-20.27803 8.04579,-30.14854 7.69475,-4.50977 8.06693,-4.58917 11.99343,-2.5587 3.75682,1.94273 4.24817,1.91832 6.73956,-0.33477 1.47802,-1.33665 3.81489,-4.63956 5.19304,-7.3398 4.57463,-8.96315 7.39332,-8.29676 8.10318,1.91575 0.24237,3.48675 0.89066,6.33675 1.44066,6.33333 0.55,-0.003 0.85,-0.19133 0.66667,-0.41759 -0.18333,-0.22626 1.16667,-2.25065 3,-4.49864 1.83333,-2.24799 4.384,-6.01265 5.66814,-8.3659 3.49916,-6.41239 6.18606,-4.38443 6.54859,4.94258 0.0729,1.87453 0.92945,2.96485 2.28327,2.90629 2.44254,-0.10565 8.1383,-2.3341 6.33674,-2.47924 -0.63979,-0.0515 -0.36322,-1.0577 0.61461,-2.23592 2.28265,-2.75041 4.94738,-7.2415 5.99207,-10.09889 1.0398,-2.84403 4.1872,-4.10193 5.39079,-2.15449 0.50578,0.81838 0.82769,3.83355 0.71536,6.70039 -0.18186,4.64102 0.11322,5.16581 2.69165,4.78715 1.85744,-0.27278 3.91683,-2.45831 5.74292,-6.0947 5.43847,-10.82987 11.3492,-11.61142 11.3492,-1.50066 0,6.30691 1.8478,6.62701 4.83004,0.83674 3.25168,-6.31339 8.63886,-13.07359 9.83112,-12.33674 0.56712,0.35051 1.44269,3.38171 1.9457,6.73601 l 0.91456,6.09872 15.81768,-0.64381 c 13.75417,-0.55982 16.35101,-1.03813 19.90596,-3.66641 2.6079,-1.9281 4.08827,-4.19377 4.08827,-6.25697 0,-4.99396 -5.31595,-13.28863 -9.88504,-15.424 -6.06373,-2.83388 -29.08338,-4.25761 -34.24836,-2.11821 -4.04975,1.67746 -4.10535,1.8264 -3.24685,8.69762 0.49415,3.95504 0.32965,7.32703 -0.37881,7.76488 -1.77051,1.09423 -8.26027,-5.67985 -10.48406,-10.94338 -2.74609,-6.49976 -5.02547,-4.62087 -5.49676,4.53096 -0.2236,4.34207 -0.96964,8.46071 -1.65787,9.15254 -1.61364,1.62207 -8.52502,-4.90966 -10.66713,-10.08118 -0.89651,-2.16436 -2.611,-3.84336 -3.9246,-3.84336 -1.91154,0 -2.49865,1.68487 -3.25231,9.33333 C 260.2524,135.8 259.40232,140 258.86916,140 c -0.53316,0 -3.92428,-3 -7.53581,-6.66666 -9.504,-9.64909 -13.56831,-8.89263 -14.81968,2.7583 -0.4278,3.98293 -1.05478,7.69332 -1.39331,8.2453 -1.11694,1.82121 -5.76738,-1.69777 -9.30183,-7.03869 -1.9125,-2.88998 -4.00405,-4.92894 -4.64789,-4.53102 -0.64384,0.39792 -1.17062,3.61461 -1.17062,7.1482 0,9.18549 -2.53311,10.77398 -7.73432,4.85013 l -4.05996,-4.62404 -6.4362,3.07096 c -9.56073,4.56181 -10.02719,4.62246 -15.28213,1.98727 -7.1842,-3.60265 -12.8921,-9.95405 -14.6214,-16.26978 -1.21854,-4.45036 -1.11776,-7.78131 0.49206,-16.2633 1.11346,-5.86667 1.9131,-10.79197 1.77699,-10.94511 -0.13612,-0.15314 -3.22219,1.11745 -6.85793,2.82354 -14.03156,6.58437 -16.22962,13.69475 -8.78968,28.43319 2.29858,4.55345 4.17923,8.67041 4.17923,9.1488 0,2.12007 -14.4915,-0.48743 -18.47563,-3.32439 -8.35229,-5.94735 -8.85771,-8.27554 -8.85771,-40.802697 V 68.666669 l -3.76473,-7.666667 c -2.0706,-4.216667 -4.1706,-7.653002 -4.66667,-7.6363 -0.49606,0.0167 -3.8374,8.914465 -7.42519,19.772806 -6.04476,18.294293 -6.47477,20.468172 -5.8623,29.636302 0.48498,7.25967 1.78116,12.34609 4.86838,19.10429 2.31409,5.06574 4.01919,9.39867 3.78911,9.62875 -0.23008,0.23008 -3.35766,-1.51462 -6.95019,-3.8771 -14.13209,-9.29338 -15.382427,-20.44125 -6.08974,-54.295415 7.02147,-25.579901 8.30928,-33.135042 6.66383,-39.094377 -2.24998,-8.148737 -12.29201,-9.541938 -30.276755,-4.200504 l -7.047587,2.093119 4.674874,5.461539 c 10.008026,11.692126 9.794945,20.578614 -1.038341,43.303844 -10.549756,22.130464 -10.428929,30.538424 0.641328,44.628254 2.099523,2.6722 3.817421,5.0722 3.817552,5.33333 1.32e-4,0.26114 -6.149869,0.4748 -13.666667,0.4748 -12.415772,0 -14.222318,0.32652 -19.734007,3.56685 -6.692568,3.93456 -11.570982,11.52145 -15.067655,23.43315 -2.232106,7.60385 -1.8268,8.35811 2.382153,4.43308 9.968561,-9.2961 28.366257,-13.14685 53.969305,-11.29609 l 16.55003,1.19634 -16.55003,8.65635 c -28.13552,14.71604 -32.996474,21.56388 -22.65096,31.90939 2.877825,2.87783 6.426188,5.8713 7.885253,6.65217 2.408481,1.28898 2.736618,0.89912 3.562301,-4.23241 1.345788,-8.36391 6.54901,-16.42663 13.022144,-20.17864 6.709162,-3.88881 19.139322,-6.50007 28.104002,-5.90395 l 6.47277,0.43042 -5.2827,6 c -12.65431,14.37255 -14.29703,25.75529 -5.16289,35.77465 l 2.83338,3.10797 0.95397,-5.57895 c 0.52469,-3.06843 2.46844,-8.1632 4.31946,-11.32172 z"
       id="path5" />
    <path
       style="fill:#ffe680"
       d="m 211.70726,113.66667 c 1.46814,-1.28333 4.90537,-4.88438 7.6383,-8.00233 l 4.96897,-5.668998 -4.7811,-1.997669 c -4.98509,-2.082903 -16.25594,-2.731329 -17.32788,-0.996894 -0.34019,0.550426 -0.29345,5.050431 0.10385,10.000001 0.66083,8.23255 0.97822,8.99922 3.72545,8.99922 1.65169,0 4.20428,-1.05 5.67241,-2.33333 z"
       id="path6" />
    <path
       style="fill:#00ff00"
       d="m 315.90466,95.38265 c 6.44873,-3.33477 7.32254,-9.699405 1.91555,-13.952541 -5.49005,-4.318471 -7.32764,-3.655257 -6.37521,2.300903 0.58929,3.68522 0.25244,5.526925 -1.23695,6.76301 -3.00729,2.495826 -9.23417,1.334465 -10.90337,-2.03356 -1.09481,-2.209055 -1.94919,-2.578854 -3.69756,-1.600413 -3.9465,2.208568 -2.69038,6.015271 2.72623,8.261977 6.37695,2.645032 12.77681,2.739957 17.57131,0.260624 z"
       id="path7" />
  </g>
</svg>
